<?xml version="1.0" encoding="UTF-8" standalone="no"?>
<!-- Generator: Adobe Illustrator 18.1.0, SVG Export Plug-In . SVG Version: 6.00 Build 0)  -->
<svg id="Layer_1" xmlns="http://www.w3.org/2000/svg" xml:space="preserve" viewBox="0 0 420 137" version="1.1" y="0px" x="0px" xmlns:xlink="http://www.w3.org/1999/xlink" enable-background="new 0 0 420 137">
	<path stroke="#fff" stroke-width="3" stroke-miterlimit="10" d="m111.9 26.9l0.3-0.3c1.4-1.4 3.2-2.1 4.9-2.2h-59.7v90.9h58.5c0.2 0 0.3-0.2 0.1-0.3l-46.1-46.1 42-42z" fill="none"/>
<g stroke="#fff" stroke-width="3" stroke-miterlimit="10" fill="#fff">
	<path d="m125.1 31.6c-0.2-4.1-3.4-6.8-6.8-7.1-0.6-0.1-1.3 0-2 0.1h-0.2c-0.3 0.1-0.6 0.1-0.9 0.2-0.1 0-0.1 0-0.1 0.1-0.3 0.1-0.5 0.2-0.8 0.3-0.1 0-0.1 0-0.2 0.1-0.3 0.2-0.6 0.3-0.8 0.5-0.1 0-0.1 0.1-0.2 0.1-0.3 0.2-0.5 0.4-0.8 0.7l-30.3 30.3-12.1 12.1 46.4 46.4c0.2 0 0.5 0 0.7-0.1 2.1-0.3 8-1.9 8-8.6v-74.2c0.1-0.4 0.1-0.6 0.1-0.9z"/>
	<path d="m45.1 26.6c-4.4-4.4-12.3-2-13.1 4.3v74.6s-0.1 9 8.6 9.9h0.7 16.1v-76.5l-12.3-12.3z"/>
</g>
<g fill="#fff">
	<path d="m158.2 35.3l-1.1 1.5c-0.6-0.5-1.3-0.7-2-0.7-1.4 0-2.3 1-2.3 3.5 0 2.4 0.9 3.3 2.3 3.3 0.8 0 1.3-0.2 2-0.8l1.1 1.6c-0.9 0.7-2 1.2-3.3 1.2-2.9 0-4.7-2-4.7-5.2s1.8-5.4 4.7-5.4c1.3-0.2 2.3 0.2 3.3 1z"/>
	<path d="m168.7 40.2h-6.3c0.2 2.1 1.1 2.7 2.5 2.7 0.9 0 1.6-0.3 2.5-0.9l1 1.4c-1 0.8-2.2 1.4-3.7 1.4-3.1 0-4.8-2.1-4.8-5.3 0-3.1 1.6-5.4 4.5-5.4 2.8 0 4.4 1.9 4.4 5.1 0 0.4-0.1 0.8-0.1 1zm-2.3-1.7c0-1.7-0.6-2.7-2-2.7-1.1 0-1.8 0.8-2 2.8h4v-0.1z"/>
	<path d="m180 37.2v7.3h-2.4v-6.9c0-1.3-0.5-1.6-1.2-1.6-0.9 0-1.5 0.6-2.1 1.5v7h-2.4v-10.1h2.1l0.2 1.3c0.8-1 1.8-1.6 3.1-1.6 1.7 0 2.7 1.2 2.7 3.1z"/>
	<path d="m189.4 44c-0.7 0.5-1.6 0.8-2.5 0.8-2 0-3-1.1-3-3.3v-5.3h-1.6v-1.8h1.6v-2.2l2.4-0.3v2.5h2.3l-0.2 1.8h-2.1v5.3c0 1 0.3 1.4 1.1 1.4 0.4 0 0.8-0.1 1.2-0.4l0.8 1.5z"/>
	<path d="m197.5 34.3l-0.4 2.4c-0.3-0.1-0.6-0.1-0.9-0.1-1.2 0-1.8 0.9-2.2 2.6v5.4h-2.4v-10.2h2.1l0.2 2c0.5-1.4 1.4-2.2 2.6-2.2 0.3 0 0.6 0 1 0.1z"/>
	<path d="m205.7 44.5l-0.1-1.4c-0.7 1.1-1.7 1.7-3.1 1.7-1.8 0-2.8-1.2-2.8-3.1v-7.2h2.4v6.9c0 1.2 0.4 1.6 1.2 1.6s1.5-0.6 2-1.4v-7.1h2.4v10.1h-2z"/>
	<path d="m224.8 37.2v7.3h-2.4v-6.9c0-1.3-0.5-1.6-1.1-1.6-0.8 0-1.4 0.6-1.9 1.5v7h-2.4v-6.9c0-1.3-0.5-1.6-1.1-1.6-0.9 0-1.4 0.6-1.9 1.5v7h-2.4v-10.1h2.1l0.2 1.3c0.7-1 1.6-1.6 2.9-1.6 1.2 0 2.1 0.6 2.4 1.7 0.8-1 1.7-1.7 3-1.7 1.6 0 2.6 1.2 2.6 3.1z"/>
	<path d="m240.7 35.3l-1 1.5c-0.8-0.6-1.6-0.9-2.5-0.9-1 0-1.6 0.4-1.6 1 0 0.7 0.4 1 2.1 1.4 2.1 0.6 3.2 1.4 3.2 3.2 0 2.1-1.9 3.2-4.3 3.2-1.7 0-3.1-0.6-4-1.4l1.4-1.3c0.8 0.6 1.7 1 2.7 1 1.1 0 1.8-0.5 1.8-1.2 0-0.9-0.4-1.1-2.3-1.7-2.1-0.6-3-1.6-3-3.1 0-1.7 1.5-2.9 3.9-2.9 1.5 0 2.7 0.5 3.6 1.2z"/>
	<path d="m249.5 44c-0.7 0.5-1.6 0.8-2.5 0.8-2 0-3-1.1-3-3.3v-5.3h-1.6v-1.8h1.6v-2.2l2.4-0.3v2.5h2.3l-0.2 1.8h-2.1v5.3c0 1 0.3 1.4 1.1 1.4 0.4 0 0.8-0.1 1.2-0.4l0.8 1.5z"/>
	<path d="m260.3 39.5c0 3.2-1.8 5.3-4.7 5.3-3 0-4.7-2-4.7-5.3 0-3.2 1.8-5.3 4.8-5.3 2.9-0.1 4.6 2 4.6 5.3zm-6.9 0c0 2.4 0.7 3.5 2.2 3.5 1.4 0 2.2-1.1 2.2-3.5s-0.7-3.5-2.2-3.5-2.2 1.1-2.2 3.5z"/>
	<path d="m276.7 37.2v7.3h-2.4v-6.9c0-1.3-0.5-1.6-1.1-1.6-0.8 0-1.4 0.6-1.9 1.5v7h-2.4v-6.9c0-1.3-0.5-1.6-1.1-1.6-0.9 0-1.4 0.6-1.9 1.5v7h-2.4v-10.1h2.1l0.2 1.3c0.7-1 1.6-1.6 2.9-1.6 1.2 0 2.1 0.6 2.4 1.7 0.8-1 1.7-1.7 3-1.7 1.5 0 2.6 1.2 2.6 3.1z"/>
	<path d="m287.7 41.8c0 0.8 0.3 1.1 0.8 1.3l-0.5 1.6c-1.1-0.1-1.8-0.5-2.2-1.5-0.7 1.1-1.8 1.5-3 1.5-2 0-3.3-1.3-3.3-3.1 0-2.2 1.7-3.4 4.6-3.4h1.3v-0.6c0-1.3-0.6-1.8-1.9-1.8-0.7 0-1.7 0.2-2.7 0.5l-0.6-1.7c1.2-0.5 2.5-0.7 3.7-0.7 2.7 0 3.9 1.2 3.9 3.5v4.4zm-2.4 0v-2h-1c-1.6 0-2.4 0.6-2.4 1.8 0 1 0.5 1.5 1.4 1.5 0.9-0.1 1.6-0.5 2-1.3z"/>
	<path d="m297.2 44c-0.7 0.5-1.6 0.8-2.5 0.8-2 0-3-1.1-3-3.3v-5.3h-1.6v-1.8h1.6v-2.2l2.4-0.3v2.5h2.3l-0.2 1.8h-2.1v5.3c0 1 0.3 1.4 1.1 1.4 0.4 0 0.8-0.1 1.2-0.4l0.8 1.5z"/>
	<path d="m308 39.5c0 3.2-1.8 5.3-4.7 5.3-3 0-4.7-2-4.7-5.3 0-3.2 1.8-5.3 4.8-5.3 2.8-0.1 4.6 2 4.6 5.3zm-6.9 0c0 2.4 0.7 3.5 2.2 3.5 1.4 0 2.2-1.1 2.2-3.5s-0.7-3.5-2.2-3.5-2.2 1.1-2.2 3.5z"/>
	<path d="m313.4 42.1c0 0.6 0.2 0.8 0.6 0.8 0.2 0 0.4 0 0.6-0.1l0.5 1.7c-0.5 0.2-1.1 0.3-1.7 0.3-1.5 0-2.4-0.9-2.4-2.6v-11.8l2.4-0.3v12z"/>
	<path d="m326 39.5c0 3.2-1.8 5.3-4.7 5.3-3 0-4.7-2-4.7-5.3 0-3.2 1.8-5.3 4.8-5.3 2.9-0.1 4.6 2 4.6 5.3zm-6.9 0c0 2.4 0.7 3.5 2.2 3.5 1.4 0 2.2-1.1 2.2-3.5s-0.7-3.5-2.2-3.5c-1.4 0-2.2 1.1-2.2 3.5z"/>
	<path d="m337.8 35c-0.8 0.3-1.7 0.3-2.9 0.3 1.2 0.6 1.8 1.3 1.8 2.6 0 2-1.5 3.4-4.1 3.4-0.4 0-0.8 0-1.2-0.2-0.2 0.2-0.4 0.4-0.4 0.7 0 0.4 0.2 0.7 1.2 0.7h1.5c2.2 0 3.7 1.2 3.7 2.9 0 2-1.7 3.2-5 3.2-3.6 0-4.6-1.1-4.6-3.2h2.2c0 1 0.4 1.4 2.4 1.4s2.5-0.5 2.5-1.3c0-0.7-0.6-1.2-1.7-1.2h-1.5c-2 0-2.9-0.9-2.9-1.9 0-0.7 0.4-1.4 1.2-1.9-1.2-0.6-1.8-1.5-1.8-2.8 0-2.2 1.7-3.6 4.2-3.6 2.4 0.1 3.5-0.5 4.7-1.1l0.7 2zm-7 2.7c0 1.2 0.7 2 1.8 2 1.2 0 1.8-0.7 1.8-2s-0.6-1.9-1.8-1.9c-1.1 0-1.8 0.8-1.8 1.9z"/>
	<path d="m342.8 30.8c0 0.8-0.6 1.5-1.5 1.5s-1.5-0.6-1.5-1.5c0-0.8 0.6-1.5 1.5-1.5s1.5 0.7 1.5 1.5zm-2.8 13.7v-10.1h2.4v10.1h-2.4z"/>
	<path d="m353.5 35.3l-1.1 1.5c-0.6-0.5-1.3-0.7-2-0.7-1.4 0-2.3 1-2.3 3.5 0 2.4 0.9 3.3 2.3 3.3 0.8 0 1.3-0.2 2-0.8l1.1 1.6c-0.9 0.7-2 1.2-3.3 1.2-2.9 0-4.7-2-4.7-5.2s1.8-5.4 4.7-5.4c1.3-0.2 2.4 0.2 3.3 1z"/>
	<path d="m357.7 42.6h5l-0.2 1.9h-7.5v-1.8l4.9-6.4h-4.5v-1.9h7.3v1.8l-5 6.4z"/>
	<path d="m373.6 37.2v7.3h-2.4v-6.9c0-1.3-0.5-1.6-1.2-1.6-0.9 0-1.5 0.6-2.1 1.5v7h-2.4v-10.1h2.1l0.2 1.3c0.8-1 1.8-1.6 3.1-1.6 1.6 0 2.7 1.2 2.7 3.1z"/>
	<path d="m385.4 40.2h-6.4c0.2 2.1 1.1 2.7 2.5 2.7 0.9 0 1.6-0.3 2.5-0.9l1 1.4c-1 0.8-2.2 1.4-3.7 1.4-3.1 0-4.8-2.1-4.8-5.3 0-3.1 1.6-5.4 4.5-5.4 2.8 0 4.4 1.9 4.4 5.1v1zm-2.4-1.7c0-1.7-0.6-2.7-2-2.7-1.1 0-1.8 0.8-2 2.8h4v-0.1z"/>
	<path d="m184.8 95.2c0 10.4-7.7 15.1-19.6 15.1h-14.9v-54.5h12.2c12.4 0 19.8 4.4 19.8 13.6 0 7-4.3 11-10 12 6.5 0.7 12.5 4.4 12.5 13.8zm-29.7-15.4h11c6.6 0 11.3-3.7 11.3-10 0-7.3-5.3-10-14.4-10h-7.9v20zm10.1 26.6c8.9 0 14.7-3 14.7-11.2 0-8.3-5.8-11.6-13.2-11.6h-11.6v22.8h10.1z"/>
	<path d="m203.4 59.7v20.3h19.4v4h-19.4v22.3h23.5v4h-28.3v-54.5h27.7l-0.6 4h-22.3z"/>
	<path d="m284.2 110.4l-2.5-26.2c-0.9-8.8-1.8-18.8-2.1-23.8l-13.6 43.5h-4.5l-14.2-43.5c-0.2 5.4-1.1 15.3-1.8 23.7l-2.4 26.3h-4.5l5.2-54.6h6.6l13.6 42.6 13.1-42.6h6.7l5.3 54.6h-4.9z"/>
	<path d="m309.3 95.5l-4.8 14.9h-4.9l18.3-54.6h6l18.2 54.6h-5l-4.8-14.9h-23zm11.6-35.8l-10.2 31.7h20.3l-10.1-31.7z"/>
	<path d="m381.8 96.4v14h-4.5v-14h-23.3v-3.4l16.2-36.5 3.9 1.6-15.1 34.5h18.3l0.6-15.5h4v15.5h7.2v3.8h-7.3z"/>
</g>
</svg>
